<?xml version="1.0" standalone="no"?><svg xmlns="http://www.w3.org/2000/svg" viewBox="0 0 1440 320"><path fill="#6A309B" fill-opacity="1" d="M0,160L17.1,138.7C34.3,117,69,75,103,80C137.1,85,171,139,206,186.7C240,235,274,277,309,288C342.9,299,377,277,411,234.7C445.7,192,480,128,514,122.7C548.6,117,583,171,617,186.7C651.4,203,686,181,720,192C754.3,203,789,245,823,240C857.1,235,891,181,926,181.3C960,181,994,235,1029,245.3C1062.9,256,1097,224,1131,213.3C1165.7,203,1200,213,1234,224C1268.6,235,1303,245,1337,213.3C1371.4,181,1406,107,1423,69.3L1440,32L1440,320L1422.9,320C1405.7,320,1371,320,1337,320C1302.9,320,1269,320,1234,320C1200,320,1166,320,1131,320C1097.1,320,1063,320,1029,320C994.3,320,960,320,926,320C891.4,320,857,320,823,320C788.6,320,754,320,720,320C685.7,320,651,320,617,320C582.9,320,549,320,514,320C480,320,446,320,411,320C377.1,320,343,320,309,320C274.3,320,240,320,206,320C171.4,320,137,320,103,320C68.6,320,34,320,17,320L0,320Z"></path></svg>